<svg width="34" height="34" viewBox="0 0 34 34" fill="none" xmlns="http://www.w3.org/2000/svg">
<path d="M6 24.3695C6 23.2769 6.15717 22.3189 6.46776 21.5031C6.77835 20.6836 7.30973 19.9202 8.05814 19.2167C8.81404 18.5094 9.85429 17.7985 11.1865 17.0875C11.875 16.732 12.3989 16.4176 12.7619 16.1482C13.1248 15.875 13.3906 15.5906 13.5627 15.2875C13.7349 14.9844 13.8209 14.6139 13.8209 14.1761C13.8209 13.5063 13.6075 12.9675 13.1847 12.5634C12.7656 12.163 12.1631 11.9608 11.3847 11.9608C10.5016 11.9608 9.79812 12.2003 9.27797 12.683C8.75782 13.1658 8.42848 13.8543 8.2975 14.7524L6.05975 14.614C6.20569 13.1771 6.74082 12.0469 7.66511 11.2274C8.58567 10.4116 9.82801 10 11.3847 10C12.3352 10 13.1623 10.1721 13.8695 10.5164C14.573 10.8606 15.1119 11.3434 15.4824 11.9721C15.8528 12.597 16.0362 13.3192 16.0362 14.1388C16.0362 14.8647 15.9164 15.4859 15.6806 15.9986C15.4411 16.515 15.0557 16.9902 14.5205 17.4356C13.9892 17.8771 13.2407 18.356 12.2753 18.8687C11.1152 19.4899 10.2248 20.1037 9.60358 20.7099C8.98239 21.3161 8.65304 21.8624 8.61562 22.3526H16.0548V24.3695H6Z" fill="black"/>
<path d="M23.2206 21.4809H16.6084V19.58L22.9027 10.3184H25.3986V19.464H27.0601V21.4809H25.3986V24.3698H23.2206V21.4809ZM23.2206 19.464V13.3083L19.0035 19.464H23.2206Z" fill="black"/>
<path d="M1 5C1 2.79086 2.79086 1 5 1H29C31.2091 1 33 2.79086 33 5V29C33 31.2091 31.2091 33 29 33H5C2.79086 33 1 31.2091 1 29V5Z" stroke="black" stroke-width="2"/>
</svg>
