<svg width="232" height="40" viewBox="0 0 232 40" fill="none" xmlns="http://www.w3.org/2000/svg">
<g clip-path="url(#clip0_1068_2755)">
<path d="M205.277 24.3821C205.277 23.2894 205.435 22.3315 205.745 21.5157C206.056 20.6962 206.587 19.9328 207.335 19.2293C208.091 18.522 209.132 17.811 210.464 17.1C211.152 16.7445 211.676 16.4302 212.039 16.1608C212.402 15.8876 212.668 15.6032 212.84 15.3001C213.012 14.997 213.098 14.6265 213.098 14.1887C213.098 13.5189 212.885 12.9801 212.462 12.5759C212.043 12.1755 211.44 11.9734 210.662 11.9734C209.779 11.9734 209.075 12.2129 208.555 12.6956C208.035 13.1783 207.706 13.8669 207.575 14.765L205.337 14.6266C205.483 13.1896 206.018 12.0595 206.942 11.24C207.863 10.4242 209.105 10.0126 210.662 10.0126C211.613 10.0126 212.44 10.1847 213.147 10.5289C213.85 10.8732 214.389 11.356 214.76 11.9847C215.13 12.6096 215.314 13.3318 215.314 14.1513C215.314 14.8773 215.194 15.4985 214.958 16.0111C214.718 16.5275 214.333 17.0028 213.798 17.4481C213.267 17.8897 212.518 18.3686 211.553 18.8813C210.393 19.5025 209.502 20.1162 208.881 20.7224C208.26 21.3287 207.93 21.875 207.893 22.3652H215.332V24.3821H205.277Z" fill="black"/>
<path d="M222.499 21.4932H215.887V19.5923L222.181 10.3307H224.677V19.4763H226.338V21.4932H224.677V24.3821H222.499V21.4932ZM222.499 19.4763V13.3206L218.282 19.4763H222.499Z" fill="black"/>
<path d="M0 0.751465H6.75935L20.3643 24.4954V0.751465H26.1471V32.3239H19.209L5.77965 9.24376V32.3239H0V0.751465Z" fill="black"/>
<path d="M41.933 32.8567C39.5905 32.8567 37.5385 32.3429 35.7736 31.3216C34.012 30.3004 32.6556 28.8547 31.7046 26.9877C30.7568 25.1175 30.2812 22.941 30.2812 20.4485C30.2812 17.988 30.7568 15.8178 31.7046 13.9349C32.6556 12.052 33.996 10.5999 35.7289 9.57866C37.465 8.55422 39.4884 8.04358 41.7989 8.04358C44.0521 8.04358 46.0308 8.54782 47.735 9.5563C49.4392 10.5648 50.7604 12.0232 51.6923 13.9349C52.6273 15.8465 53.0933 18.122 53.0933 20.7613V22.0506H36.1949C36.3162 24.0963 36.8778 25.6537 37.8863 26.7196C38.8948 27.7855 40.2575 28.3217 41.9777 28.3217C43.2223 28.3217 44.2754 28.0313 45.1339 27.4537C45.9924 26.876 46.586 26.0686 46.9116 25.0314L52.739 25.3856C52.0848 27.6994 50.8018 29.5217 48.8902 30.8557C46.9786 32.1897 44.6585 32.8567 41.933 32.8567ZM47.1797 18.2273C47.0616 16.3284 46.5286 14.9051 45.5776 13.9572C44.6297 13.0094 43.3691 12.5339 41.7989 12.5339C40.2575 12.5339 38.9905 13.0254 37.998 14.0019C37.0055 14.9817 36.4055 16.3891 36.1949 18.2273H47.1797Z" fill="black"/>
<path d="M61.8065 20.2283L53.5344 8.57654H59.7162L65.1862 16.6699L70.4776 8.57654H76.7934L68.6106 20.273L77.0582 32.3237H70.9211L65.2309 23.7835L59.5375 32.3237H53.2695L61.8065 20.2283Z" fill="black"/>
<path d="M89.2426 32.3236C86.8714 32.3236 85.1288 31.7747 84.0182 30.6769C82.9044 29.5791 82.3491 27.8621 82.3491 25.5196V12.9806H78.6152V8.57649H82.3491V3.02026H88.0426V8.57649H94.3105V12.9806H88.0426V24.9866C88.0426 26.0813 88.2724 26.844 88.7287 27.2749C89.1883 27.7057 89.9383 27.9195 90.9755 27.9195H94.3105V32.3236H89.2426Z" fill="black"/>
<path d="M105.3 26.0974H98.7637V32.3225H105.3V26.0974Z" fill="black"/>
<path d="M106.471 34.5897H108.829C109.716 34.5897 110.377 34.3982 110.808 34.012C111.239 33.6259 111.452 32.9461 111.452 31.9663V8.57665H117.143V32.1451C117.143 34.6056 116.587 36.3609 115.477 37.4141C114.363 38.4672 112.49 38.9938 109.85 38.9938H106.471V34.5897ZM111.318 0.751343H117.232V5.81928H111.318V0.751343Z" fill="black"/>
<path d="M131.952 32.8567C128.544 32.8567 125.888 32.129 123.992 30.677C122.097 29.2249 121.056 27.2845 120.881 24.8527L126.705 24.5846C126.913 25.8611 127.439 26.8313 128.282 27.4983C129.128 28.1653 130.35 28.4972 131.952 28.4972C134.799 28.4972 136.222 27.61 136.222 25.8292C136.222 25.2675 136.088 24.808 135.82 24.4505C135.555 24.0963 135.051 23.7835 134.307 23.5186C133.567 23.2506 132.469 22.9984 131.017 22.7623C128.588 22.3474 126.683 21.8368 125.304 21.2272C123.926 20.6209 122.939 19.8645 122.346 18.9613C121.755 18.055 121.459 16.9061 121.459 15.5146C121.459 13.2615 122.333 11.452 124.082 10.0893C125.831 8.72655 128.304 8.04358 131.508 8.04358C134.591 8.04358 136.998 8.7712 138.734 10.2233C140.467 11.6754 141.513 13.6157 141.868 16.0476L136.088 16.3157C135.881 15.0998 135.376 14.1423 134.575 13.4466C133.774 12.7509 132.737 12.3998 131.464 12.3998C130.13 12.3998 129.115 12.6679 128.416 13.2009C127.72 13.737 127.372 14.4455 127.372 15.3359C127.372 16.2837 127.726 16.989 128.438 17.4486C129.15 17.9082 130.41 18.2848 132.22 18.5816C134.709 18.9677 136.672 19.4656 138.111 20.072C139.547 20.6783 140.578 21.4347 141.201 22.341C141.823 23.2442 142.136 24.3771 142.136 25.7398C142.136 27.993 141.207 29.7419 139.356 30.9897C137.502 32.2343 135.035 32.8567 131.952 32.8567Z" fill="black"/>
<path d="M161.433 24.7108C160.31 24.7108 159.346 24.4172 158.542 23.83C157.738 23.2428 157.128 22.3971 156.71 21.296C156.295 20.195 156.088 18.8897 156.088 17.3866C156.088 15.8675 156.295 14.559 156.71 13.458C157.128 12.3538 157.738 11.508 158.542 10.9144C159.346 10.3208 160.31 10.024 161.433 10.024C162.764 10.024 163.865 10.4549 164.737 11.3197C165.608 12.1846 166.176 13.3941 166.441 14.9515L164.165 15.0696C163.98 14.0675 163.651 13.3112 163.186 12.8037C162.716 12.2963 162.132 12.041 161.433 12.041C160.457 12.041 159.704 12.5037 159.177 13.426C158.647 14.3515 158.382 15.6696 158.382 17.3866C158.382 19.1004 158.647 20.4152 159.177 21.3247C159.704 22.2375 160.457 22.6907 161.433 22.6907C162.171 22.6907 162.78 22.4162 163.262 21.8705C163.744 21.3216 164.073 20.5078 164.242 19.4259L166.521 19.544C166.268 21.1652 165.704 22.4322 164.826 23.3449C163.948 24.2545 162.819 24.7108 161.433 24.7108Z" fill="black"/>
<path d="M173.209 24.7108C171.534 24.7108 170.238 24.0662 169.319 22.78C168.403 21.4939 167.943 19.6971 167.943 17.3866C167.943 15.0505 168.403 13.2378 169.319 11.9516C170.238 10.6655 171.534 10.024 173.209 10.024C174.885 10.024 176.184 10.6655 177.099 11.9516C178.015 13.2378 178.475 15.0505 178.475 17.3866C178.475 19.6971 178.015 21.4939 177.099 22.78C176.184 24.0662 174.885 24.7108 173.209 24.7108ZM173.209 22.6715C174.173 22.6715 174.907 22.2215 175.418 21.3247C175.925 20.428 176.177 19.1163 176.177 17.3866C176.177 15.6568 175.925 14.3388 175.418 13.426C174.907 12.5165 174.173 12.0602 173.209 12.0602C172.245 12.0602 171.511 12.5165 171.004 13.426C170.493 14.3388 170.241 15.6568 170.241 17.3866C170.241 19.1163 170.493 20.428 171.004 21.3247C171.511 22.2215 172.245 22.6715 173.209 22.6715Z" fill="black"/>
<path d="M180.434 10.3398H183.047L187.522 20.6704V10.3398H189.698V24.3947H187.084L182.61 14.061V24.3947H180.434V10.3398Z" fill="black"/>
<path d="M192.889 10.3398H201.754V12.3377H195.065V16.5152H201.4V18.513H195.065V24.3947H192.889V10.3398Z" fill="black"/>
<path fill-rule="evenodd" clip-rule="evenodd" d="M226.334 1.58228C229.24 1.58228 231.595 3.93773 231.595 6.84404V27.8935C231.595 30.7998 229.24 33.1553 226.334 33.1553H156.169C153.263 33.1553 150.908 30.7998 150.908 27.8935V6.84404C150.908 3.93773 153.263 1.58228 156.169 1.58228H226.334ZM226.334 3.3358H156.169C154.232 3.3358 152.661 4.9067 152.661 6.84404V27.8935C152.661 29.8309 154.232 31.4012 156.169 31.4018H226.334C228.271 31.4012 229.842 29.8309 229.842 27.8935V6.84404C229.842 4.9067 228.271 3.3358 226.334 3.3358Z" fill="black"/>
</g>
<defs>
<clipPath id="clip0_1068_2755">
<rect width="231.75" height="38.3093" fill="white" transform="translate(0 0.751587)"/>
</clipPath>
</defs>
</svg>
