<svg width="12" height="12" viewBox="0 0 12 12" fill="none" xmlns="http://www.w3.org/2000/svg">
<g clip-path="url(#clip0_1162_130)">
<path d="M4.28567 11.7145C4.28567 11.752 4.27829 11.7891 4.26394 11.8238C4.24959 11.8584 4.22856 11.8899 4.20205 11.9164C4.17554 11.9429 4.14407 11.9639 4.10943 11.9783C4.07479 11.9926 4.03766 12 4.00017 12H1.14317C1.06739 12 0.994705 11.9699 0.941116 11.9163C0.887528 11.8627 0.857422 11.79 0.857422 11.7142C0.857422 11.6385 0.887528 11.5658 0.941116 11.5122C0.994705 11.4586 1.06739 11.4285 1.14317 11.4285H4.00017C4.15817 11.4285 4.28567 11.5565 4.28567 11.7145ZM4.00017 10.285H3.42867C3.35289 10.285 3.2802 10.3151 3.22662 10.3687C3.17303 10.4223 3.14292 10.495 3.14292 10.5708C3.14292 10.6465 3.17303 10.7192 3.22662 10.7728C3.2802 10.8264 3.35289 10.8565 3.42867 10.8565H4.00017C4.07596 10.8565 4.14864 10.8264 4.20223 10.7728C4.25582 10.7192 4.28592 10.6465 4.28592 10.5708C4.28592 10.495 4.25582 10.4223 4.20223 10.3687C4.14864 10.3151 4.07596 10.285 4.00017 10.285ZM1.14317 10.8565H2.28517C2.36096 10.8565 2.43364 10.8264 2.48723 10.7728C2.54082 10.7192 2.57092 10.6465 2.57092 10.5708C2.57092 10.495 2.54082 10.4223 2.48723 10.3687C2.43364 10.3151 2.36096 10.285 2.28517 10.285H1.14317C1.06739 10.285 0.994705 10.3151 0.941116 10.3687C0.887528 10.4223 0.857422 10.495 0.857422 10.5708C0.857422 10.6465 0.887528 10.7192 0.941116 10.7728C0.994705 10.8264 1.06739 10.8565 1.14317 10.8565ZM4.00017 9.143H1.14317C1.06739 9.143 0.994705 9.17311 0.941116 9.22669C0.887528 9.28028 0.857422 9.35296 0.857422 9.42875C0.857422 9.50454 0.887528 9.57722 0.941116 9.63081C0.994705 9.68439 1.06739 9.7145 1.14317 9.7145H4.00017C4.07596 9.7145 4.14864 9.68439 4.20223 9.63081C4.25582 9.57722 4.28592 9.50454 4.28592 9.42875C4.28592 9.35296 4.25582 9.28028 4.20223 9.22669C4.14864 9.17311 4.07596 9.143 4.00017 9.143ZM8.00017 8H2.85717C2.78139 8 2.7087 8.03011 2.65512 8.08369C2.60153 8.13728 2.57142 8.20996 2.57142 8.28575C2.57142 8.36154 2.60153 8.43422 2.65512 8.48781C2.7087 8.54139 2.78139 8.5715 2.85717 8.5715H8.00017C8.07596 8.5715 8.14864 8.54139 8.20223 8.48781C8.25582 8.43422 8.28592 8.36154 8.28592 8.28575C8.28592 8.20996 8.25582 8.13728 8.20223 8.08369C8.14864 8.03011 8.07596 8 8.00017 8ZM1.14317 8.5715H1.71467C1.79046 8.5715 1.86314 8.54139 1.91673 8.48781C1.97032 8.43422 2.00042 8.36154 2.00042 8.28575C2.00042 8.20996 1.97032 8.13728 1.91673 8.08369C1.86314 8.03011 1.79046 8 1.71467 8H1.14317C1.06739 8 0.994705 8.03011 0.941116 8.08369C0.887528 8.13728 0.857422 8.20996 0.857422 8.28575C0.857422 8.36154 0.887528 8.43422 0.941116 8.48781C0.994705 8.54139 1.06739 8.5715 1.14317 8.5715ZM9.71467 6.857H8.00017C7.92439 6.857 7.8517 6.88711 7.79812 6.94069C7.74453 6.99428 7.71442 7.06696 7.71442 7.14275C7.71442 7.21854 7.74453 7.29122 7.79812 7.34481C7.8517 7.39839 7.92439 7.4285 8.00017 7.4285H9.71467C9.79046 7.4285 9.86314 7.39839 9.91673 7.34481C9.97032 7.29122 10.0004 7.21854 10.0004 7.14275C10.0004 7.06696 9.97032 6.99428 9.91673 6.94069C9.86314 6.88711 9.79046 6.857 9.71467 6.857ZM4.57167 7.4285H6.85717C6.93296 7.4285 7.00564 7.39839 7.05923 7.34481C7.11282 7.29122 7.14292 7.21854 7.14292 7.14275C7.14292 7.06696 7.11282 6.99428 7.05923 6.94069C7.00564 6.88711 6.93296 6.857 6.85717 6.857H4.57167C4.49589 6.857 4.4232 6.88711 4.36962 6.94069C4.31603 6.99428 4.28592 7.06696 4.28592 7.14275C4.28592 7.21854 4.31603 7.29122 4.36962 7.34481C4.4232 7.39839 4.49589 7.4285 4.57167 7.4285ZM1.14317 7.4285H3.42867C3.50446 7.4285 3.57714 7.39839 3.63073 7.34481C3.68432 7.29122 3.71442 7.21854 3.71442 7.14275C3.71442 7.06696 3.68432 6.99428 3.63073 6.94069C3.57714 6.88711 3.50446 6.857 3.42867 6.857H1.14317C1.06739 6.857 0.994705 6.88711 0.941116 6.94069C0.887528 6.99428 0.857422 7.06696 0.857422 7.14275C0.857422 7.21854 0.887528 7.29122 0.941116 7.34481C0.994705 7.39839 1.06739 7.4285 1.14317 7.4285ZM10.2852 5.715H5.71517C5.63945 5.715 5.56683 5.74508 5.51329 5.79862C5.45975 5.85216 5.42967 5.92478 5.42967 6.0005C5.42967 6.07622 5.45975 6.14884 5.51329 6.20238C5.56683 6.25592 5.63945 6.286 5.71517 6.286H10.2862C10.3619 6.286 10.4345 6.25592 10.4881 6.20238C10.5416 6.14884 10.5717 6.07622 10.5717 6.0005C10.5717 5.92478 10.5416 5.85216 10.4881 5.79862C10.4345 5.74508 10.3619 5.715 10.2862 5.715H10.2852ZM4.85717 6C4.85717 5.92428 4.82709 5.85166 4.77355 5.79812C4.72001 5.74458 4.64739 5.7145 4.57167 5.7145H2.85717C2.78145 5.7145 2.70883 5.74458 2.65529 5.79812C2.60175 5.85166 2.57167 5.92428 2.57167 6C2.57167 6.07572 2.60175 6.14834 2.65529 6.20188C2.70883 6.25542 2.78145 6.2855 2.85717 6.2855H4.57167C4.64739 6.2855 4.72001 6.25542 4.77355 6.20188C4.82709 6.14834 4.85717 6.07572 4.85717 6ZM1.14317 6.2855H1.71467C1.79039 6.2855 1.86301 6.25542 1.91655 6.20188C1.97009 6.14834 2.00017 6.07572 2.00017 6C2.00017 5.92428 1.97009 5.85166 1.91655 5.79812C1.86301 5.74458 1.79039 5.7145 1.71467 5.7145H1.14317C1.06745 5.7145 0.994835 5.74458 0.941293 5.79812C0.887751 5.85166 0.857672 5.92428 0.857672 6C0.857672 6.07572 0.887751 6.14834 0.941293 6.20188C0.994835 6.25542 1.06745 6.2855 1.14317 6.2855ZM10.8572 4.5715H8.00017C7.92439 4.5715 7.8517 4.60161 7.79812 4.65519C7.74453 4.70878 7.71442 4.78146 7.71442 4.85725C7.71442 4.93304 7.74453 5.00572 7.79812 5.05931C7.8517 5.11289 7.92439 5.143 8.00017 5.143H10.8572C10.933 5.143 11.0056 5.11289 11.0592 5.05931C11.1128 5.00572 11.1429 4.93304 11.1429 4.85725C11.1429 4.78146 11.1128 4.70878 11.0592 4.65519C11.0056 4.60161 10.933 4.5715 10.8572 4.5715ZM1.14317 5.143H4.00017C4.07596 5.143 4.14864 5.11289 4.20223 5.05931C4.25582 5.00572 4.28592 4.93304 4.28592 4.85725C4.28592 4.78146 4.25582 4.70878 4.20223 4.65519C4.14864 4.60161 4.07596 4.5715 4.00017 4.5715H1.14317C1.06739 4.5715 0.994705 4.60161 0.941116 4.65519C0.887528 4.70878 0.857422 4.78146 0.857422 4.85725C0.857422 4.93304 0.887528 5.00572 0.941116 5.05931C0.994705 5.11289 1.06739 5.143 1.14317 5.143ZM7.71467 3.7145C7.71467 3.872 7.84217 4 8.00017 4H10.8572C10.933 4 11.0056 3.96989 11.0592 3.91631C11.1128 3.86272 11.1429 3.79004 11.1429 3.71425C11.1429 3.63846 11.1128 3.56578 11.0592 3.51219C11.0056 3.45861 10.933 3.4285 10.8572 3.4285H8.00017C7.96264 3.4285 7.92547 3.4359 7.8908 3.45028C7.85613 3.46466 7.82463 3.48573 7.79812 3.5123C7.7716 3.53886 7.75058 3.57039 7.73626 3.60509C7.72194 3.63979 7.71461 3.67697 7.71467 3.7145ZM3.42867 3.4285C3.35289 3.4285 3.2802 3.45861 3.22662 3.51219C3.17303 3.56578 3.14292 3.63846 3.14292 3.71425C3.14292 3.79004 3.17303 3.86272 3.22662 3.91631C3.2802 3.96989 3.35289 4 3.42867 4H4.00017C4.07596 4 4.14864 3.96989 4.20223 3.91631C4.25582 3.86272 4.28592 3.79004 4.28592 3.71425C4.28592 3.63846 4.25582 3.56578 4.20223 3.51219C4.14864 3.45861 4.07596 3.4285 4.00017 3.4285H3.42867ZM1.14317 4H2.28517C2.36096 4 2.43364 3.96989 2.48723 3.91631C2.54082 3.86272 2.57092 3.79004 2.57092 3.71425C2.57092 3.63846 2.54082 3.56578 2.48723 3.51219C2.43364 3.45861 2.36096 3.4285 2.28517 3.4285H1.14317C1.06739 3.4285 0.994705 3.45861 0.941116 3.51219C0.887528 3.56578 0.857422 3.63846 0.857422 3.71425C0.857422 3.79004 0.887528 3.86272 0.941116 3.91631C0.994705 3.96989 1.06739 4 1.14317 4ZM9.42867 2.5715C9.42867 2.729 9.55667 2.857 9.71467 2.857H10.2857C10.3615 2.857 10.4341 2.82689 10.4877 2.77331C10.5413 2.71972 10.5714 2.64704 10.5714 2.57125C10.5714 2.49546 10.5413 2.42278 10.4877 2.36919C10.4341 2.31561 10.3615 2.2855 10.2857 2.2855H9.71517C9.6776 2.28543 9.64037 2.29279 9.60565 2.30714C9.57092 2.32149 9.53936 2.34255 9.51279 2.36912C9.48622 2.39569 9.46516 2.42725 9.45081 2.46197C9.43646 2.4967 9.42861 2.53392 9.42867 2.5715ZM8.85717 2.5715C8.85724 2.53397 8.8499 2.49679 8.83558 2.46209C8.82126 2.42739 8.80025 2.39586 8.77373 2.3693C8.74721 2.34273 8.71571 2.32166 8.68104 2.30728C8.64637 2.2929 8.60921 2.2855 8.57167 2.2855H6.28517C6.20939 2.2855 6.13671 2.31561 6.08312 2.36919C6.02953 2.42278 5.99942 2.49546 5.99942 2.57125C5.99942 2.64704 6.02953 2.71972 6.08312 2.77331C6.13671 2.82689 6.20939 2.857 6.28517 2.857H8.57117C8.64689 2.857 8.71951 2.82692 8.77305 2.77338C8.82659 2.71984 8.85667 2.64722 8.85667 2.5715H8.85717ZM1.14317 2.857H5.14317C5.21896 2.857 5.29164 2.82689 5.34523 2.77331C5.39882 2.71972 5.42892 2.64704 5.42892 2.57125C5.42892 2.49546 5.39882 2.42278 5.34523 2.36919C5.29164 2.31561 5.21896 2.2855 5.14317 2.2855H1.14317C1.06739 2.2855 0.994705 2.31561 0.941116 2.36919C0.887528 2.42278 0.857422 2.49546 0.857422 2.57125C0.857422 2.64704 0.887528 2.71972 0.941116 2.77331C0.994705 2.82689 1.06739 2.857 1.14317 2.857ZM3.71467 1.4285C3.71467 1.5865 3.84217 1.7145 4.00017 1.7145H9.71467C9.79046 1.7145 9.86314 1.68439 9.91673 1.63081C9.97032 1.57722 10.0004 1.50454 10.0004 1.42875C10.0004 1.35296 9.97032 1.28028 9.91673 1.22669C9.86314 1.17311 9.79046 1.143 9.71467 1.143H4.00017C3.92445 1.143 3.85183 1.17308 3.79829 1.22662C3.74475 1.28016 3.71467 1.35278 3.71467 1.4285ZM1.14317 1.7145H2.85717C2.93296 1.7145 3.00564 1.68439 3.05923 1.63081C3.11282 1.57722 3.14292 1.50454 3.14292 1.42875C3.14292 1.35296 3.11282 1.28028 3.05923 1.22669C3.00564 1.17311 2.93296 1.143 2.85717 1.143H1.14317C1.06739 1.143 0.994705 1.17311 0.941116 1.22669C0.887528 1.28028 0.857422 1.35296 0.857422 1.42875C0.857422 1.50454 0.887528 1.57722 0.941116 1.63081C0.994705 1.68439 1.06739 1.7145 1.14317 1.7145ZM1.14317 0.5715H8.00017C8.07596 0.5715 8.14864 0.541394 8.20223 0.487806C8.25582 0.434217 8.28592 0.361536 8.28592 0.28575C8.28592 0.209964 8.25582 0.137283 8.20223 0.0836942C8.14864 0.0301057 8.07596 0 8.00017 0L1.14317 0C1.06739 0 0.994705 0.0301057 0.941116 0.0836942C0.887528 0.137283 0.857422 0.209964 0.857422 0.28575C0.857422 0.361536 0.887528 0.434217 0.941116 0.487806C0.994705 0.541394 1.06739 0.5715 1.14317 0.5715Z" fill="black"/>
</g>
<defs>
<clipPath id="clip0_1162_130">
<rect width="12" height="12" fill="white"/>
</clipPath>
</defs>
</svg>
