<svg width="232" height="40" viewBox="0 0 232 40" fill="none" xmlns="http://www.w3.org/2000/svg">
<g clip-path="url(#clip0_1068_2875)">
<path d="M205.277 24.3822C205.277 23.2896 205.435 22.3316 205.745 21.5158C206.056 20.6963 206.587 19.9329 207.335 19.2294C208.091 18.5221 209.132 17.8112 210.464 17.1002C211.152 16.7447 211.676 16.4303 212.039 16.1609C212.402 15.8877 212.668 15.6033 212.84 15.3002C213.012 14.9971 213.098 14.6266 213.098 14.1888C213.098 13.519 212.885 12.9802 212.462 12.5761C212.043 12.1757 211.44 11.9735 210.662 11.9735C209.779 11.9735 209.075 12.213 208.555 12.6957C208.035 13.1785 207.706 13.867 207.575 14.7651L205.337 14.6267C205.483 13.1897 206.018 12.0596 206.942 11.2401C207.863 10.4243 209.105 10.0127 210.662 10.0127C211.613 10.0127 212.44 10.1848 213.147 10.5291C213.85 10.8733 214.389 11.3561 214.76 11.9848C215.13 12.6097 215.314 13.3319 215.314 14.1515C215.314 14.8774 215.194 15.4986 214.958 16.0113C214.718 16.5277 214.333 17.0029 213.798 17.4482C213.267 17.8898 212.518 18.3687 211.553 18.8814C210.393 19.5026 209.502 20.1163 208.881 20.7226C208.26 21.3288 207.93 21.8751 207.893 22.3653H215.332V24.3822H205.277Z" fill="white"/>
<path d="M222.499 21.4934H215.887V19.5925L222.181 10.3308H224.677V19.4764H226.338V21.4934H224.677V24.3822H222.499V21.4934ZM222.499 19.4764V13.3207L218.282 19.4764H222.499Z" fill="white"/>
<path d="M0 0.751465H6.75935L20.3643 24.4954V0.751465H26.1471V32.3239H19.209L5.77965 9.24376V32.3239H0V0.751465Z" fill="white"/>
<path d="M41.933 32.8565C39.5905 32.8565 37.5385 32.3427 35.7736 31.3215C34.012 30.3003 32.6556 28.8545 31.7046 26.9876C30.7568 25.1174 30.2812 22.9409 30.2812 20.4484C30.2812 17.9878 30.7568 15.8177 31.7046 13.9348C32.6556 12.0518 33.996 10.5998 35.7289 9.57854C37.465 8.5541 39.4884 8.04346 41.7989 8.04346C44.0521 8.04346 46.0308 8.54769 47.735 9.55617C49.4392 10.5647 50.7604 12.0231 51.6923 13.9348C52.6273 15.8464 53.0933 18.1219 53.0933 20.7612V22.0505H36.1949C36.3162 24.0962 36.8778 25.6536 37.8863 26.7195C38.8948 27.7854 40.2575 28.3216 41.9777 28.3216C43.2223 28.3216 44.2754 28.0312 45.1339 27.4535C45.9924 26.8759 46.586 26.0684 46.9116 25.0312L52.739 25.3855C52.0848 27.6992 50.8018 29.5215 48.8902 30.8555C46.9786 32.1895 44.6585 32.8565 41.933 32.8565ZM47.1797 18.2272C47.0616 16.3283 46.5286 14.905 45.5776 13.9571C44.6297 13.0093 43.3691 12.5338 41.7989 12.5338C40.2575 12.5338 38.9905 13.0252 37.998 14.0018C37.0055 14.9816 36.4055 16.389 36.1949 18.2272H47.1797Z" fill="white"/>
<path d="M61.8065 20.2284L53.5344 8.57666H59.7162L65.1862 16.67L70.4776 8.57666H76.7934L68.6106 20.2731L77.0582 32.3238H70.9211L65.2309 23.7837L59.5375 32.3238H53.2695L61.8065 20.2284Z" fill="white"/>
<path d="M89.2426 32.3236C86.8714 32.3236 85.1288 31.7747 84.0182 30.6769C82.9044 29.5791 82.3491 27.8621 82.3491 25.5196V12.9806H78.6152V8.57649H82.3491V3.02026H88.0426V8.57649H94.3105V12.9806H88.0426V24.9866C88.0426 26.0813 88.2724 26.844 88.7287 27.2749C89.1883 27.7057 89.9383 27.9195 90.9755 27.9195H94.3105V32.3236H89.2426Z" fill="white"/>
<path d="M105.3 26.0974H98.7637V32.3225H105.3V26.0974Z" fill="white"/>
<path d="M106.471 34.5898H108.829C109.716 34.5898 110.377 34.3983 110.808 34.0122C111.239 33.626 111.452 32.9462 111.452 31.9665V8.57677H117.143V32.1452C117.143 34.6058 116.587 36.361 115.477 37.4142C114.363 38.4674 112.49 38.9939 109.85 38.9939H106.471V34.5898ZM111.318 0.751465H117.232V5.8194H111.318V0.751465Z" fill="white"/>
<path d="M131.952 32.8565C128.544 32.8565 125.888 32.1289 123.992 30.6768C122.097 29.2247 121.056 27.2844 120.881 24.8525L126.705 24.5844C126.913 25.861 127.439 26.8312 128.282 27.4982C129.128 28.1652 130.35 28.4971 131.952 28.4971C134.799 28.4971 136.222 27.6099 136.222 25.8291C136.222 25.2674 136.088 24.8079 135.82 24.4504C135.555 24.0962 135.051 23.7834 134.307 23.5185C133.567 23.2504 132.469 22.9983 131.017 22.7622C128.588 22.3473 126.683 21.8367 125.304 21.2271C123.926 20.6208 122.939 19.8644 122.346 18.9612C121.755 18.0548 121.459 16.906 121.459 15.5145C121.459 13.2614 122.333 11.4519 124.082 10.0892C125.831 8.72643 128.304 8.04346 131.508 8.04346C134.591 8.04346 136.998 8.77108 138.734 10.2232C140.467 11.6752 141.513 13.6156 141.868 16.0475L136.088 16.3156C135.881 15.0996 135.376 14.1422 134.575 13.4465C133.774 12.7508 132.737 12.3997 131.464 12.3997C130.13 12.3997 129.115 12.6678 128.416 13.2008C127.72 13.7369 127.372 14.4454 127.372 15.3358C127.372 16.2836 127.726 16.9889 128.438 17.4485C129.15 17.908 130.41 18.2846 132.22 18.5814C134.709 18.9676 136.672 19.4655 138.111 20.0718C139.547 20.6782 140.578 21.4346 141.201 22.3409C141.823 23.2441 142.136 24.377 142.136 25.7397C142.136 27.9928 141.207 29.7417 139.356 30.9896C137.502 32.2342 135.035 32.8565 131.952 32.8565Z" fill="white"/>
<path d="M161.433 24.7107C160.31 24.7107 159.346 24.4171 158.542 23.8299C157.738 23.2427 157.128 22.3969 156.71 21.2959C156.295 20.1949 156.088 18.8896 156.088 17.3865C156.088 15.8674 156.295 14.5589 156.71 13.4579C157.128 12.3536 157.738 11.5079 158.542 10.9143C159.346 10.3207 160.31 10.0239 161.433 10.0239C162.764 10.0239 163.865 10.4547 164.737 11.3196C165.608 12.1845 166.176 13.394 166.441 14.9514L164.165 15.0695C163.98 14.0674 163.651 13.311 163.186 12.8036C162.716 12.2962 162.132 12.0409 161.433 12.0409C160.457 12.0409 159.704 12.5036 159.177 13.4259C158.647 14.3514 158.382 15.6695 158.382 17.3865C158.382 19.1002 158.647 20.4151 159.177 21.3246C159.704 22.2374 160.457 22.6905 161.433 22.6905C162.171 22.6905 162.78 22.4161 163.262 21.8704C163.744 21.3215 164.073 20.5076 164.242 19.4258L166.521 19.5438C166.268 21.1651 165.704 22.4321 164.826 23.3448C163.948 24.2543 162.819 24.7107 161.433 24.7107Z" fill="white"/>
<path d="M173.209 24.7107C171.534 24.7107 170.238 24.066 169.319 22.7799C168.403 21.4938 167.943 19.697 167.943 17.3865C167.943 15.0504 168.403 13.2376 169.319 11.9515C170.238 10.6654 171.534 10.0239 173.209 10.0239C174.885 10.0239 176.184 10.6654 177.099 11.9515C178.015 13.2376 178.475 15.0504 178.475 17.3865C178.475 19.697 178.015 21.4938 177.099 22.7799C176.184 24.066 174.885 24.7107 173.209 24.7107ZM173.209 22.6714C174.173 22.6714 174.907 22.2214 175.418 21.3246C175.925 20.4278 176.177 19.1162 176.177 17.3865C176.177 15.6567 175.925 14.3387 175.418 13.4259C174.907 12.5164 174.173 12.06 173.209 12.06C172.245 12.06 171.511 12.5164 171.004 13.4259C170.493 14.3387 170.241 15.6567 170.241 17.3865C170.241 19.1162 170.493 20.4278 171.004 21.3246C171.511 22.2214 172.245 22.6714 173.209 22.6714Z" fill="white"/>
<path d="M180.434 10.3398H183.047L187.522 20.6704V10.3398H189.698V24.3947H187.084L182.61 14.061V24.3947H180.434V10.3398Z" fill="white"/>
<path d="M192.889 10.3398H201.754V12.3377H195.065V16.5152H201.4V18.513H195.065V24.3947H192.889V10.3398Z" fill="white"/>
<path fill-rule="evenodd" clip-rule="evenodd" d="M226.334 1.58228C229.24 1.58228 231.595 3.93773 231.595 6.84404V27.8935C231.595 30.7998 229.24 33.1553 226.334 33.1553H156.169C153.263 33.1553 150.908 30.7998 150.908 27.8935V6.84404C150.908 3.93773 153.263 1.58228 156.169 1.58228H226.334ZM226.334 3.3358H156.169C154.232 3.3358 152.661 4.9067 152.661 6.84404V27.8935C152.661 29.8309 154.232 31.4012 156.169 31.4018H226.334C228.271 31.4012 229.842 29.8309 229.842 27.8935V6.84404C229.842 4.9067 228.271 3.3358 226.334 3.3358Z" fill="white"/>
</g>
<defs>
<clipPath id="clip0_1068_2875">
<rect width="231.75" height="38.3093" fill="white" transform="translate(0 0.751709)"/>
</clipPath>
</defs>
</svg>
