<svg width="89" height="18" viewBox="0 0 89 18" fill="none" xmlns="http://www.w3.org/2000/svg">
<g clip-path="url(#clip0_1_3)">
<path d="M58.8318 0.00732422H74.247V2.85738H68.1319V17.8512H65.0742V2.85738H58.8318V0.00732422Z" fill="#EDEDED"/>
<path d="M33.4803 0.00732422V2.85738H21.124V7.44225H31.0609V10.2923H21.124V15.0011H33.4803V17.8512H18.0665V2.85738H18.0652V0.00732422H33.4803Z" fill="#EDEDED"/>
<path d="M41.1769 0.0146484H37.1755L51.5076 17.8585H55.5206L48.3537 8.94271L55.5092 0.0282622L51.5076 0.0344564L46.3503 6.45045L41.1769 0.0146484Z" fill="#EDEDED"/>
<path d="M45.2834 12.7606L43.2796 10.2649L37.1646 17.8721H41.1774L45.2834 12.7606Z" fill="#EDEDED"/>
<path fill-rule="evenodd" clip-rule="evenodd" d="M18.1733 17.8513L3.82192 0H0V17.8438H3.05754V3.81411L14.3322 17.8513H18.1733Z" fill="#EDEDED"/>
<path d="M74.9343 17.7423C74.7103 17.7423 74.5198 17.6646 74.3604 17.5092C74.2009 17.3538 74.122 17.1656 74.1241 16.9428C74.122 16.726 74.2009 16.5399 74.3604 16.3845C74.5198 16.2291 74.7103 16.1514 74.9343 16.1514C75.1497 16.1514 75.3381 16.2291 75.4976 16.3845C75.6593 16.5399 75.74 16.726 75.7422 16.9428C75.74 17.09 75.7027 17.2249 75.6281 17.3456C75.5515 17.4683 75.4543 17.5644 75.3318 17.6339C75.2117 17.7055 75.0791 17.7423 74.9343 17.7423Z" fill="#EDEDED"/>
<path d="M80.1532 10.2252H81.5081V15.454C81.506 15.9346 81.4023 16.3456 81.1994 16.6912C80.9944 17.0368 80.7104 17.3006 80.3459 17.4867C79.9833 17.6707 79.5586 17.7648 79.0759 17.7648C78.6345 17.7648 78.239 17.685 77.8868 17.5296C77.5345 17.3742 77.2549 17.1411 77.0498 16.8343C76.8425 16.5276 76.741 16.1452 76.741 15.6872H78.0981C78.1001 15.8876 78.1457 16.0614 78.2327 16.2065C78.3196 16.3517 78.4398 16.4621 78.5932 16.5399C78.7484 16.6176 78.9267 16.6564 79.1275 16.6564C79.3452 16.6564 79.5316 16.6114 79.6828 16.5194C79.834 16.4294 79.9501 16.2945 80.031 16.1145C80.1096 15.9366 80.1511 15.7158 80.1532 15.454V10.2252Z" fill="#EDEDED"/>
<path d="M87.0826 12.2701C87.0495 11.9531 86.9044 11.7057 86.6517 11.5299C86.3968 11.3519 86.0675 11.264 85.6634 11.264C85.3797 11.264 85.1353 11.307 84.9323 11.3908C84.7292 11.4767 84.5718 11.5912 84.4639 11.7364C84.3564 11.8816 84.3024 12.0472 84.2982 12.2333C84.2982 12.3887 84.3355 12.5237 84.408 12.6362C84.4806 12.7507 84.5778 12.8468 84.7043 12.9245C84.8285 13.0042 84.9673 13.0697 85.1187 13.1228C85.2719 13.176 85.4253 13.221 85.5785 13.2578L86.2849 13.4316C86.5689 13.4971 86.8445 13.585 87.1075 13.6975C87.3705 13.8079 87.6088 13.949 87.818 14.1187C88.0273 14.2884 88.1931 14.4929 88.3153 14.7322C88.4375 14.9714 88.4997 15.2516 88.4997 15.5747C88.4997 16.0102 88.3878 16.3926 88.1619 16.7239C87.9361 17.0531 87.6109 17.3108 87.1841 17.4969C86.7593 17.6809 86.2456 17.775 85.6407 17.775C85.0565 17.775 84.5468 17.685 84.118 17.5051C83.6872 17.3272 83.3514 17.0654 83.109 16.7219C82.8667 16.3783 82.7362 15.9591 82.7175 15.4663H84.0601C84.0787 15.7239 84.1616 15.9387 84.3024 16.1125C84.4453 16.2843 84.6317 16.4111 84.8597 16.4969C85.0897 16.5808 85.3465 16.6237 85.6304 16.6237C85.9267 16.6237 86.1877 16.5787 86.4134 16.4908C86.6371 16.4029 86.8132 16.2802 86.9397 16.1207C87.0682 15.9632 87.1324 15.7771 87.1344 15.5645C87.1324 15.3702 87.0742 15.2086 86.9624 15.0818C86.8485 14.9551 86.691 14.8487 86.49 14.7629C86.2872 14.677 86.0509 14.5993 85.7816 14.5318L84.924 14.315C84.3045 14.1576 83.8134 13.9183 83.455 13.5973C83.0947 13.2762 82.9163 12.8509 82.9163 12.3172C82.9163 11.8796 83.0365 11.4951 83.2791 11.1659C83.5192 10.8367 83.8487 10.581 84.2652 10.399C84.6836 10.215 85.156 10.125 85.6821 10.125C86.2166 10.125 86.6848 10.215 87.0888 10.399C87.4927 10.581 87.8099 10.8346 88.0397 11.1577C88.2697 11.4808 88.3898 11.8509 88.3961 12.2701H87.0826Z" fill="#EDEDED"/>
</g>
<defs>
<clipPath id="clip0_1_3">
<rect width="88.5" height="18" fill="white"/>
</clipPath>
</defs>
</svg>
